<svg width="40" height="40" viewBox="0 0 40 40" fill="none" xmlns="http://www.w3.org/2000/svg">
<path fill-rule="evenodd" clip-rule="evenodd" d="M19.6353 28.6352C19.6356 28.6353 19.6358 28.6355 20 27.9799L19.6358 28.6355C19.8623 28.7613 20.1377 28.7613 20.3642 28.6355L20 27.9799C20.3642 28.6355 20.3644 28.6353 20.3647 28.6352L20.3653 28.6349L20.3672 28.6338L20.3734 28.6303L20.3954 28.6179C20.4143 28.6073 20.4414 28.5918 20.4763 28.5716C20.546 28.5313 20.6468 28.4723 20.7741 28.3955C21.0286 28.242 21.3898 28.0172 21.8223 27.7289C22.6857 27.1533 23.8402 26.3198 24.9983 25.2904C27.2663 23.2744 29.75 20.33 29.75 16.9799C29.75 15.3298 29.2662 13.995 28.4489 13.0235C27.6339 12.0546 26.5248 11.4926 25.357 11.3243C23.4211 11.0453 21.31 11.8444 20 13.6547C18.6901 11.8444 16.5789 11.0453 14.643 11.3243C13.4752 11.4926 12.3661 12.0546 11.5511 13.0235C10.7338 13.995 10.25 15.3298 10.25 16.9799C10.25 20.33 12.7337 23.2744 15.0017 25.2904C16.1598 26.3198 17.3143 27.1533 18.1777 27.7289C18.6102 28.0172 18.9714 28.242 19.2259 28.3955C19.3532 28.4723 19.454 28.5313 19.5237 28.5716C19.5586 28.5918 19.5857 28.6073 19.6046 28.6179L19.6266 28.6303L19.6328 28.6338L19.6347 28.6349L19.6353 28.6352Z" fill="#1A1A1A"/>
</svg>
