<svg width="40" height="40" viewBox="0 0 40 40" fill="none" xmlns="http://www.w3.org/2000/svg">
<path fill-rule="evenodd" clip-rule="evenodd" d="M12.8902 14.15C12.3757 14.7617 12 15.6799 12 16.9799C12 19.5131 13.9384 22.0038 16.1644 23.9824C17.2453 24.9433 18.3309 25.7278 19.1484 26.2728C19.4863 26.498 19.7768 26.6813 20 26.8181C20.2232 26.6813 20.5137 26.498 20.8516 26.2728C21.6691 25.7278 22.7547 24.9433 23.8356 23.9824C26.0616 22.0038 28 19.5131 28 16.9799C28 15.6799 27.6243 14.7617 27.1098 14.15C26.5924 13.535 25.8836 13.1683 25.1074 13.0564C23.5454 12.8313 21.7381 13.646 20.92 15.5662C20.7629 15.9349 20.4008 16.1743 20 16.1743C19.5992 16.1743 19.2371 15.9349 19.08 15.5662C18.2619 13.646 16.4546 12.8313 14.8926 13.0564C14.1164 13.1683 13.4076 13.535 12.8902 14.15ZM20 27.9798C19.5144 28.854 19.5141 28.8538 19.5138 28.8537L19.5131 28.8533L19.511 28.8521L19.5043 28.8484L19.4814 28.8355C19.4619 28.8244 19.4342 28.8086 19.3987 28.7881C19.3276 28.747 19.2255 28.6872 19.0968 28.6096C18.8395 28.4543 18.475 28.2275 18.0391 27.9369C17.1691 27.3569 16.0047 26.5164 14.8356 25.4773C12.5616 23.4559 10 20.4467 10 16.9799C10 15.2798 10.4993 13.8855 11.3598 12.8626C12.2174 11.8431 13.3836 11.2532 14.6074 11.0769C16.5372 10.7988 18.6266 11.5444 20 13.2433C21.3734 11.5444 23.4628 10.7988 25.3926 11.0769C26.6164 11.2532 27.7826 11.8431 28.6402 12.8626C29.5007 13.8855 30 15.2798 30 16.9799C30 20.4467 27.4384 23.4559 25.1644 25.4773C23.9953 26.5164 22.8309 27.3569 21.9609 27.9369C21.525 28.2275 21.1606 28.4543 20.9032 28.6096C20.7745 28.6872 20.6724 28.747 20.6013 28.7881C20.5658 28.8086 20.5381 28.8244 20.5186 28.8355L20.4957 28.8484L20.489 28.8521L20.4869 28.8533L20.4862 28.8537C20.4859 28.8538 20.4856 28.854 20 27.9798ZM20 27.9798L20.4856 28.854C20.1836 29.0218 19.8164 29.0218 19.5144 28.854L20 27.9798Z" fill="#4D4D4D"/>
</svg>
