<svg width="40" height="40" viewBox="0 0 40 40" fill="none" xmlns="http://www.w3.org/2000/svg">
<path d="M23.5303 22.4697C23.2374 22.1768 22.7626 22.1768 22.4697 22.4697C22.1768 22.7626 22.1768 23.2374 22.4697 23.5303L23.5303 22.4697ZM28.4697 29.5303C28.7626 29.8232 29.2374 29.8232 29.5303 29.5303C29.8232 29.2374 29.8232 28.7626 29.5303 28.4697L28.4697 29.5303ZM18 24.25C14.5482 24.25 11.75 21.4518 11.75 18H10.25C10.25 22.2802 13.7198 25.75 18 25.75V24.25ZM11.75 18C11.75 14.5482 14.5482 11.75 18 11.75V10.25C13.7198 10.25 10.25 13.7198 10.25 18H11.75ZM18 11.75C21.4518 11.75 24.25 14.5482 24.25 18H25.75C25.75 13.7198 22.2802 10.25 18 10.25V11.75ZM24.25 18C24.25 21.4518 21.4518 24.25 18 24.25V25.75C22.2802 25.75 25.75 22.2802 25.75 18H24.25ZM22.4697 23.5303L28.4697 29.5303L29.5303 28.4697L23.5303 22.4697L22.4697 23.5303Z" fill="#BCBCBC"/>
</svg>
