<svg width="20" height="20" viewBox="0 0 20 20" fill="none" xmlns="http://www.w3.org/2000/svg">
<rect width="20" height="20" rx="10" fill="black"/>
<path d="M13.8033 12.2374C13.6521 12.5867 13.4731 12.9083 13.2657 13.204C12.983 13.6071 12.7515 13.8861 12.5731 14.041C12.2966 14.2953 12.0003 14.4256 11.683 14.433C11.4552 14.433 11.1805 14.3682 10.8608 14.2367C10.54 14.1058 10.2452 14.041 9.97565 14.041C9.69294 14.041 9.38974 14.1058 9.06543 14.2367C8.74062 14.3682 8.47896 14.4367 8.27891 14.4435C7.97465 14.4564 7.67139 14.3225 7.36869 14.041C7.17548 13.8725 6.93382 13.5836 6.64432 13.1744C6.33372 12.7374 6.07835 12.2306 5.8783 11.6528C5.66404 11.0288 5.55664 10.4245 5.55664 9.83942C5.55664 9.16926 5.70145 8.59125 5.9915 8.10688C6.21946 7.71782 6.52272 7.41091 6.90228 7.18561C7.28184 6.96031 7.69195 6.8455 8.1336 6.83815C8.37526 6.83815 8.69217 6.9129 9.08598 7.05981C9.47868 7.20722 9.73084 7.28197 9.84139 7.28197C9.92404 7.28197 10.2042 7.19456 10.679 7.02031C11.1281 6.85871 11.5071 6.7918 11.8176 6.81815C12.6589 6.88605 13.291 7.21771 13.7113 7.81522C12.9589 8.27113 12.5867 8.9097 12.5941 9.72887C12.6009 10.3669 12.8324 10.8979 13.2873 11.3195C13.4934 11.5152 13.7237 11.6664 13.9798 11.7738C13.9243 11.9349 13.8657 12.0892 13.8033 12.2374ZM11.8737 4.64439C11.8737 5.14451 11.691 5.61146 11.3268 6.04367C10.8873 6.55748 10.3558 6.85439 9.77929 6.80754C9.77195 6.74754 9.76769 6.68439 9.76769 6.61804C9.76769 6.13793 9.97669 5.62412 10.3479 5.20401C10.5332 4.9913 10.7688 4.81443 11.0546 4.67334C11.3398 4.53436 11.6095 4.4575 11.8632 4.44434C11.8707 4.51119 11.8737 4.57806 11.8737 4.64439V4.64439Z" fill="white"/>
</svg>
