<svg width="14" height="14" viewBox="0 0 14 14" fill="none" xmlns="http://www.w3.org/2000/svg">
<path d="M7.02905 9.01247H7.52905C7.52905 8.73633 7.30519 8.51247 7.02905 8.51247V9.01247ZM7.02905 9.0708L7.02893 9.5708C7.16156 9.57084 7.28877 9.51817 7.38256 9.4244C7.47636 9.33063 7.52905 9.20343 7.52905 9.0708H7.02905ZM6.97095 9.07079H6.47095C6.47095 9.34688 6.69473 9.57072 6.97082 9.57079L6.97095 9.07079ZM6.97095 9.01247V8.51247C6.6948 8.51247 6.47095 8.73633 6.47095 9.01247H6.97095ZM7.5 4.92914C7.5 4.653 7.27614 4.42914 7 4.42914C6.72386 4.42914 6.5 4.653 6.5 4.92914H7.5ZM6.5 7.26247C6.5 7.53861 6.72386 7.76247 7 7.76247C7.27614 7.76247 7.5 7.53861 7.5 7.26247H6.5ZM7 11.75C4.37665 11.75 2.25 9.62335 2.25 7H1.25C1.25 10.1756 3.82436 12.75 7 12.75V11.75ZM2.25 7C2.25 4.37665 4.37665 2.25 7 2.25V1.25C3.82436 1.25 1.25 3.82436 1.25 7H2.25ZM7 2.25C9.62335 2.25 11.75 4.37665 11.75 7H12.75C12.75 3.82436 10.1756 1.25 7 1.25V2.25ZM11.75 7C11.75 9.62335 9.62335 11.75 7 11.75V12.75C10.1756 12.75 12.75 10.1756 12.75 7H11.75ZM6.52905 9.01247V9.0708H7.52905V9.01247H6.52905ZM7.02918 8.57081L6.97107 8.57079L6.97082 9.57079L7.02893 9.5708L7.02918 8.57081ZM7.47095 9.07079V9.01247H6.47095V9.07079H7.47095ZM6.97095 9.51247H7.02905V8.51247H6.97095V9.51247ZM6.5 4.92914V7.26247H7.5V4.92914H6.5Z" fill="#EA0000"/>
</svg>
