<svg width="12" height="12" viewBox="0 0 12 12" fill="none" xmlns="http://www.w3.org/2000/svg">
<path d="M10 8.50008V5.72611V5.72576C10 5.45883 10 5.32529 9.96753 5.20103C9.93874 5.09085 9.89134 4.98638 9.82738 4.89216C9.75521 4.78585 9.65478 4.69791 9.45371 4.52197L7.05371 2.42197C6.6804 2.09533 6.49375 1.93203 6.28369 1.86991C6.0986 1.81517 5.9014 1.81517 5.71631 1.86991C5.50636 1.932 5.3199 2.09515 4.947 2.42144L4.94639 2.42197L2.54639 4.52197L2.54591 4.52239C2.34516 4.69805 2.24472 4.78593 2.17261 4.89216C2.10865 4.98638 2.06127 5.09085 2.03249 5.20103C2 5.32535 2 5.45894 2 5.72611V8.50008C2 8.96602 2 9.19895 2.07612 9.38272C2.17761 9.62775 2.3724 9.82243 2.61743 9.92393C2.8012 10 3.03417 10 3.50011 10C3.96606 10 4.19891 10 4.38268 9.92393C4.62771 9.82243 4.82233 9.62775 4.92383 9.38272C4.99995 9.19895 5 8.96598 5 8.50004V8.00004C5 7.44775 5.44771 7.00004 6 7.00004C6.55228 7.00004 7 7.44775 7 8.00004V8.50004C7 8.96598 7 9.19895 7.07612 9.38272C7.17761 9.62775 7.3724 9.82243 7.61743 9.92393C7.8012 10 8.03417 10 8.50011 10C8.96606 10 9.19891 10 9.38268 9.92393C9.62771 9.82243 9.82233 9.62775 9.92383 9.38272C9.99995 9.19895 10 8.96602 10 8.50008Z" fill="white"/>
</svg>
