<svg width="20" height="20" viewBox="0 0 20 20" fill="none" xmlns="http://www.w3.org/2000/svg">
<path d="M12.8467 6.9542C13.6725 6.9542 14.3712 6.40341 14.6412 5.64709H17.3886C17.7141 5.64709 18 5.35115 18 4.98121C18 4.61127 17.7141 4.32355 17.3886 4.32355H14.6412C14.3792 3.55901 13.6725 3 12.8467 3C12.0208 3 11.3062 3.55901 11.0442 4.32355H2.63524C2.27792 4.32355 2 4.61127 2 4.98121C2 5.35115 2.27792 5.64709 2.63524 5.64709H11.0521C11.3141 6.40341 12.0208 6.9542 12.8467 6.9542ZM12.8467 5.94304C12.3226 5.94304 11.9176 5.51556 11.9176 4.97299C11.9176 4.43042 12.3226 4.01116 12.8467 4.01116C13.3707 4.01116 13.7757 4.43042 13.7757 4.97299C13.7757 5.51556 13.3707 5.94304 12.8467 5.94304ZM2.60347 9.33823C2.27792 9.33823 2 9.63417 2 10.0041C2 10.374 2.27792 10.6618 2.60347 10.6618H5.44615C5.70819 11.4345 6.41489 11.9853 7.24069 11.9853C8.0665 11.9853 8.7732 11.4345 9.04318 10.6618H17.3568C17.7141 10.6618 18 10.374 18 10.0041C18 9.63417 17.7141 9.33823 17.3568 9.33823H9.03524C8.7732 8.58191 8.0665 8.03112 7.24069 8.03112C6.41489 8.03112 5.70819 8.58191 5.44615 9.33823H2.60347ZM7.24069 10.9659C6.72457 10.9659 6.31166 10.5385 6.31166 10.0041C6.31166 9.46154 6.72457 9.04228 7.24069 9.04228C7.76476 9.04228 8.16973 9.46154 8.16973 10.0041C8.16973 10.5385 7.76476 10.9659 7.24069 10.9659ZM12.8467 17C13.6725 17 14.3792 16.4492 14.6412 15.6847H17.3886C17.7141 15.6847 18 15.3969 18 15.027C18 14.6571 17.7141 14.3611 17.3886 14.3611H14.6412C14.3792 13.5966 13.6725 13.054 12.8467 13.054C12.0208 13.054 11.3141 13.5966 11.0521 14.3611H2.63524C2.27792 14.3611 2 14.6571 2 15.027C2 15.3969 2.27792 15.6847 2.63524 15.6847H11.0442C11.3141 16.4492 12.0208 17 12.8467 17ZM12.8467 15.9888C12.3226 15.9888 11.9176 15.5614 11.9176 15.027C11.9176 14.4762 12.3226 14.0652 12.8467 14.0652C13.3707 14.0652 13.7757 14.4762 13.7757 15.027C13.7757 15.5614 13.3707 15.9888 12.8467 15.9888Z" fill="#BCBCBC"/>
</svg>
