<svg width="24" height="24" viewBox="0 0 24 24" fill="none" xmlns="http://www.w3.org/2000/svg">
<path fill-rule="evenodd" clip-rule="evenodd" d="M4.89025 6.15004C4.37574 6.76168 4 7.67989 4 8.97985C4 11.5131 5.93835 14.0038 8.16436 15.9824C9.2453 16.9433 10.3309 17.7278 11.1484 18.2728C11.4863 18.498 11.7768 18.6813 12 18.8181C12.2232 18.6813 12.5137 18.498 12.8516 18.2728C13.6691 17.7278 14.7547 16.9433 15.8356 15.9824C18.0616 14.0038 20 11.5131 20 8.97985C20 7.67989 19.6243 6.76168 19.1098 6.15004C18.5924 5.53499 17.8836 5.16827 17.1074 5.05641C15.5454 4.83133 13.7381 5.64603 12.92 7.56621C12.7629 7.93495 12.4008 8.17426 12 8.17426C11.5992 8.17426 11.2371 7.93495 11.08 7.56621C10.2619 5.64603 8.4546 4.83133 6.89263 5.05641C6.11636 5.16827 5.40763 5.53499 4.89025 6.15004ZM12 19.9798C11.5144 20.854 11.5141 20.8538 11.5138 20.8537L11.5131 20.8533L11.511 20.8521L11.5043 20.8484L11.4814 20.8355C11.4619 20.8244 11.4342 20.8086 11.3987 20.7881C11.3276 20.747 11.2255 20.6872 11.0968 20.6096C10.8395 20.4543 10.475 20.2275 10.0391 19.9369C9.16911 19.3569 8.0047 18.5164 6.83564 17.4773C4.56165 15.4559 2 12.4467 2 8.97985C2 7.2798 2.49926 5.8855 3.35975 4.86258C4.21737 3.84307 5.38364 3.25319 6.60737 3.07685C8.53723 2.79876 10.6266 3.54439 12 5.24327C13.3734 3.54439 15.4628 2.79876 17.3926 3.07685C18.6164 3.25319 19.7826 3.84307 20.6402 4.86258C21.5007 5.8855 22 7.2798 22 8.97985C22 12.4467 19.4384 15.4559 17.1644 17.4773C15.9953 18.5164 14.8309 19.3569 13.9609 19.9369C13.525 20.2275 13.1606 20.4543 12.9032 20.6096C12.7745 20.6872 12.6724 20.747 12.6013 20.7881C12.5658 20.8086 12.5381 20.8244 12.5186 20.8355L12.4957 20.8484L12.489 20.8521L12.4869 20.8533L12.4862 20.8537C12.4859 20.8538 12.4856 20.854 12 19.9798ZM12 19.9798L12.4856 20.854C12.1836 21.0218 11.8164 21.0218 11.5144 20.854L12 19.9798Z" fill="#4D4D4D"/>
</svg>
