<svg width="26" height="26" viewBox="0 0 26 26" fill="none" xmlns="http://www.w3.org/2000/svg">
<path d="M19.9752 5.36677H17.8757V3.84143C17.8757 3.5576 17.6265 3.28677 17.334 3.29977C17.1912 3.30254 17.0551 3.3605 16.9541 3.46149C16.8531 3.56247 16.7951 3.69864 16.7924 3.84143V5.36677H9.20904V3.84143C9.20904 3.5576 8.95987 3.28677 8.66737 3.29977C8.52458 3.30254 8.38841 3.3605 8.28742 3.46149C8.18644 3.56247 8.12848 3.69864 8.1257 3.84143V5.36677H6.0262C5.30817 5.36763 4.6198 5.65324 4.11207 6.16097C3.60435 6.66869 3.31873 7.35707 3.31787 8.0751V19.9918C3.31787 21.4857 4.53337 22.7001 6.0262 22.7001H19.9741C21.468 22.7001 22.6825 21.4857 22.6825 19.9918V8.0751C22.6825 7.35699 22.3973 6.66828 21.8896 6.1604C21.3819 5.65252 20.6933 5.36705 19.9752 5.36677ZM6.0262 6.4501H8.1257V7.09143C8.1257 7.37527 8.37487 7.6461 8.66737 7.6331C8.96096 7.6201 9.20904 7.39477 9.20904 7.09143V6.4501H16.7924V7.09143C16.7924 7.37527 17.0415 7.6461 17.334 7.6331C17.6276 7.6201 17.8757 7.39477 17.8757 7.09143V6.4501H19.9741C20.87 6.4501 21.5991 7.17918 21.5991 8.0751V9.7911H4.4012V8.0751C4.4012 7.17918 5.13029 6.4501 6.0262 6.4501ZM19.9752 21.6168H6.0262C5.13029 21.6168 4.4012 20.8877 4.4012 19.9918V10.8744H21.5991V19.9918C21.5991 20.4226 21.4281 20.8357 21.1236 21.1404C20.819 21.4451 20.406 21.6165 19.9752 21.6168Z" fill="#BCBCBC"/>
</svg>
