<svg width="16" height="16" viewBox="0 0 16 16" fill="none" xmlns="http://www.w3.org/2000/svg">
<path fill-rule="evenodd" clip-rule="evenodd" d="M8.00019 2.75C6.95876 2.75 5.96161 3.15923 5.22772 3.88506C4.49411 4.61061 4.0835 5.59292 4.0835 6.6154C4.0835 8.01484 4.69827 9.33952 5.51375 10.4733C6.32544 11.6018 7.29221 12.4799 7.89077 12.97C7.93733 13.0081 7.97073 13.0355 7.99982 13.0584C7.99994 13.0585 8.00007 13.0586 8.00019 13.0587C8.00037 13.0585 8.00054 13.0584 8.00072 13.0582C8.02976 13.0354 8.06316 13.0081 8.10966 12.97C8.7082 12.4799 9.67494 11.6018 10.4866 10.4733C11.302 9.33951 11.9168 8.01483 11.9168 6.61538C11.9168 5.59289 11.5062 4.61061 10.7726 3.88507C10.0387 3.15923 9.04161 2.75 8.00019 2.75ZM4.17294 2.81855C5.18939 1.81328 6.56627 1.25 8.00019 1.25C9.43413 1.25 10.8109 1.81329 11.8274 2.81856C12.8441 3.82412 13.4168 5.18971 13.4168 6.61538C13.4168 8.45047 12.6168 10.0805 11.7044 11.3491C10.7881 12.623 9.71387 13.5952 9.05994 14.1306C9.04884 14.1397 9.03737 14.1492 9.0255 14.159C8.87933 14.2798 8.67428 14.4492 8.38408 14.5309C8.14703 14.5977 7.85319 14.5977 7.61614 14.5309C7.32608 14.4493 7.12107 14.2798 6.97526 14.1593C6.96327 14.1494 6.95168 14.1398 6.94048 14.1306C6.28656 13.5952 5.21226 12.6231 4.29601 11.3492C3.38354 10.0805 2.5835 8.4505 2.5835 6.6154C2.5835 5.18972 3.15621 3.82411 4.17294 2.81855ZM8.00016 5.41667C7.678 5.41667 7.41683 5.67783 7.41683 6C7.41683 6.32217 7.678 6.58333 8.00016 6.58333C8.32233 6.58333 8.5835 6.32217 8.5835 6C8.5835 5.67783 8.32233 5.41667 8.00016 5.41667ZM5.91683 6C5.91683 4.84941 6.84957 3.91667 8.00016 3.91667C9.15076 3.91667 10.0835 4.84941 10.0835 6C10.0835 7.15059 9.15076 8.08333 8.00016 8.08333C6.84957 8.08333 5.91683 7.15059 5.91683 6Z" fill="#4D4D4D"/>
</svg>
